PathFileType	4	(X/Y/Z)	Run_200 01
DataRate	CameraRate	NumFrames	NumMarkers	Units	OrigDataRate	OrigDataStartFrame	OrigNumFrames
120	120	4	42	mm	120	319	128
Frame#	Time	LASI			RASI			LPSI			RPSI			RTH1			RTH2			RTH3			LTH1			LTH2			LTH3			RTB1			RTB2			RTB3			LTB1			LTB2			LTB3			RCAL			RTOE			RMT5			LCAL			LTOE			LMT5			LACR			RACR			CLAV			C7			RUA1			RUA2			RUA3			RLEL			LUA1			LUA2			LUA3			LLEL			RFAsuperior			RFAradius			RFAulna			LFAsuperior			LFAradius			LFAulna			LMEL			RMEL		
		X1	Y1	Z1	X2	Y2	Z2	X3	Y3	Z3	X4	Y4	Z4	X5	Y5	Z5	X6	Y6	Z6	X7	Y7	Z7	X8	Y8	Z8	X9	Y9	Z9	X10	Y10	Z10	X11	Y11	Z11	X12	Y12	Z12	X13	Y13	Z13	X14	Y14	Z14	X15	Y15	Z15	X16	Y16	Z16	X17	Y17	Z17	X18	Y18	Z18	X19	Y19	Z19	X20	Y20	Z20	X21	Y21	Z21	X22	Y22	Z22	X23	Y23	Z23	X24	Y24	Z24	X25	Y25	Z25	X26	Y26	Z26	X27	Y27	Z27	X28	Y28	Z28	X29	Y29	Z29	X30	Y30	Z30	X31	Y31	Z31	X32	Y32	Z32	X33	Y33	Z33	X34	Y34	Z34	X35	Y35	Z35	X36	Y36	Z36	X37	Y37	Z37	X38	Y38	Z38	X39	Y39	Z39	X40	Y40	Z40	X41	Y41	Z41	X42	Y42	Z42	

319	  2.658333	1090.400029	997.819265	-430.659815	1078.930183	995.645620	-189.574369	920.626848	1036.111328	-376.132886	916.142291	1035.793104	-277.262145	1008.749128	835.881144	-152.624361	1076.378083	691.710289	-189.984795	1009.984113	600.840131	-207.691280	1074.241804	835.843116	-498.539868	1195.052581	785.454373	-480.593728	1188.987757	649.346748	-475.891328	1007.369688	366.839824	-285.399383	937.417224	334.037679	-226.470841	906.705813	216.569956	-294.683019	1212.240426	438.618667	-420.858435	1111.306219	399.550491	-466.391350	1066.582978	306.818102	-405.985227	728.365775	124.769223	-312.300266	931.858590	 77.358137	-346.675618	916.792127	 44.309540	-241.657007	893.922950	288.685190	-387.261117	1041.173931	141.152071	-374.491407	1009.862561	131.534405	-475.299081	1041.556350	1486.351048	-485.389551	1089.574471	1461.443675	-122.477907	1141.536767	1426.118482	-294.526810	1027.436378	1512.078250	-307.741876	1067.134834	1372.113529	-80.151360	1072.906733	1282.644472	-99.008019	987.224606	1282.249570	-69.929948	964.148575	1170.204876	-49.935357	983.614837	1431.858194	-530.151009	918.119146	1396.638116	-488.016022	934.553926	1340.005669	-549.883580	824.514305	1280.600243	-565.608102	1055.402344	1135.871750	-53.857469	1192.403153	1035.900019	-117.846450	1146.579711	985.326645	-111.855794	888.458665	1225.085680	-576.613366	1019.673067	1083.941485	-525.301051	962.263856	1050.662416	-543.376409	811.496716	1278.683401	-493.480524	942.047967	1168.066105	-114.620869	
320	  2.666667	1090.264282	1005.641374	-430.630509	1079.631889	1001.103498	-189.841401	920.838667	1043.415210	-375.363829	916.567887	1042.685696	-276.037993	1007.016668	841.806101	-152.783072	1070.589752	696.348005	-190.881857	1001.566457	606.956627	-206.989233	1076.165694	845.261117	-499.328247	1195.729911	794.819474	-479.397524	1189.549156	658.001907	-475.334079	994.659637	372.572988	-284.016403	924.288503	339.967923	-225.595370	893.913665	222.352541	-292.965843	1220.773578	444.670254	-420.001331	1122.441909	398.925027	-466.117430	1083.528393	303.601152	-405.898716	715.724977	133.132323	-311.346953	916.725178	 77.829268	-346.334915	900.662026	 44.194147	-241.704769	912.636748	274.599292	-386.450568	1068.474486	136.204043	-373.798770	1037.602314	124.143392	-474.006184	1040.109205	1493.530729	-485.250915	1091.817674	1469.193699	-123.460291	1141.873426	1433.155783	-295.954613	1027.867999	1518.601391	-308.015353	1069.525382	1380.334610	-80.559247	1074.999436	1290.565576	-99.364264	989.854458	1290.735142	-68.542988	967.022841	1178.644161	-48.254241	981.166265	1440.654647	-529.555336	915.917707	1406.174097	-486.941481	931.129720	1349.190829	-549.368536	820.370853	1290.915092	-563.799023	1059.361471	1147.419739	-54.110140	1198.447583	1053.501360	-122.250957	1155.330304	1000.861921	-114.176505	884.017662	1235.659874	-575.787323	1016.081472	1094.918808	-526.353427	958.925465	1061.177143	-544.184507	808.065411	1289.001646	-491.485130	945.445920	1176.578381	-113.366729	
321	  2.675000	1090.245375	1013.768952	-430.756175	1080.382203	1006.875727	-190.228782	921.208696	1050.704830	-374.585402	917.078685	1049.584459	-274.955177	1005.970107	847.911183	-152.628179	1065.090312	701.274819	-191.429182	993.660656	613.405291	-205.947046	1077.988989	854.897356	-500.060413	1196.006322	803.907650	-478.465608	1188.726155	665.873268	-474.172956	982.792088	378.564876	-282.140263	911.805744	346.238763	-224.443494	881.847120	228.357382	-291.154221	1228.330695	450.399042	-419.408265	1133.316007	397.860923	-465.901818	1100.576960	300.253871	-405.604568	703.996664	142.156834	-310.279703	901.935170	 78.261102	-345.746979	884.540307	 44.579206	-241.180651	932.308706	260.729716	-385.660811	1095.835032	131.572169	-372.476594	1065.389292	116.717473	-472.277704	1038.939706	1500.632033	-485.104196	1094.028263	1476.916008	-124.477318	1142.199245	1440.148055	-297.247739	1028.398385	1525.154121	-308.305411	1071.960750	1388.564789	-80.969365	1076.875040	1298.539328	-99.581347	992.216285	1299.511006	-67.175802	969.547158	1187.309331	-46.501037	979.039564	1449.373228	-528.978574	914.116547	1415.655949	-485.887958	928.110348	1358.319405	-548.917990	816.736053	1301.029117	-562.188510	1062.827019	1159.144257	-54.376516	1203.345565	1070.724983	-126.412158	1162.975171	1016.255801	-116.393232	880.097372	1246.010055	-575.061242	1013.064490	1105.789091	-527.161691	956.158669	1071.561677	-544.725618	805.080553	1299.215664	-489.664846	948.326835	1185.312139	-112.029241	
322	  2.683333	1090.344127	1021.998208	-431.007894	1081.108230	1012.771307	-190.631498	921.681007	1057.898303	-373.819406	917.755277	1056.372050	-274.072702	1005.332354	854.031227	-152.270249	1059.881548	706.402497	-191.553585	986.229704	620.085058	-204.679636	1079.517669	864.306895	-500.461113	1195.863381	812.537022	-477.882299	1186.622715	672.843821	-472.363603	971.822777	384.633269	-279.921840	900.101090	352.775627	-222.926965	870.696046	234.486267	-289.119749	1234.899928	455.615825	-419.141566	1143.953736	396.360023	-465.718706	1117.634398	296.905496	-405.137000	693.249699	151.717474	-309.117929	887.464113	 78.661846	-345.011579	868.347230	 45.337905	-240.322178	952.747645	247.331276	-385.003830	1122.954713	127.290349	-370.646884	1093.146018	109.368469	-470.115861	1038.050773	1507.518848	-484.983060	1096.126133	1484.490028	-125.632842	1142.498142	1446.987827	-298.423518	1029.025164	1531.680318	-308.632903	1074.366724	1396.741521	-81.410107	1078.547352	1306.538032	-99.631326	994.303193	1308.459570	-65.870589	971.775668	1196.049232	-44.704353	977.254751	1457.812871	-528.413600	912.756915	1424.842332	-484.823408	925.468478	1367.248483	-548.521373	813.567850	1310.775512	-560.824897	1065.807742	1170.834865	-54.659021	1207.256239	1087.314040	-130.348816	1169.595441	1031.332211	-118.608857	876.613471	1255.959160	-574.458718	1010.569613	1116.385194	-527.738982	953.915262	1081.678986	-545.004629	802.495806	1309.204594	-487.999401	949.990505	1194.062446	-110.404110	
